<svg xmlns="http://www.w3.org/2000/svg" width="144.796388" height="144.796388" viewBox="0 0 38.31071 38.310711">
  <path d="M24.658782 9.31889c1.73877-.41473 3.093084-.82163 1.998464-2.36122-.468833-.65942-1.275201-.94629-1.977422-1.26462-1.89192-.85765-4.055254-1.01208-6.156993-.83499-.849851.0301-2.889507.55347-4.677027 1.12445-2.999639.8249-3.233875 2.72729-.737063 3.54994 3.022931.95656 9.006836.25012 11.550041-.21356zM2.089526 28.76162c-.197378 1.2963 1.11356 2.37116 3.26301 3.19844 6.314562 2.43033 20.153677 2.76396 27.073235.69099 2.664207-.79815 4.63405-2.03722 4.090796-3.48247-1.753908-4.66611-9.275555-6.37352-16.706348-6.3755-3.052529.25878-16.889954.51277-17.720693 5.96854zM8.04409 18.78465c1.838588 2.02207 6.248446 2.52201 10.708795 2.07915 7.217873-.71668 14.685398-4.04657 11.254379-6.99651-1.617129-1.39034-6.558181-1.96589-11.321241-2.00621-3.654554.052-15.697733 1.13583-10.641933 6.92357z" fill="#fff"/>
  <path d="M25.60195 6.11508c1.054872.7004.208503 1.92948-.772501 2.09142-2.525496.85665-5.23922.91762-7.88124.9379-1.771766-.0673-3.709398-.0149-5.389694-.65136.756173 1.20456 2.433241 1.28611 3.704833 1.45043 3.194129.23052 6.421253-.0822 9.566101-.64586.827685-.25136 2.340285-.40143 2.232255-1.56359-.184723-.72437-.798511-1.30926-1.459754-1.61894zM28.615263 13.11552c.834797.35131 1.104641 1.45706.498453 2.15063-5.441033 4.70792-14.543905 5.99457-20.520125 3.74087-.283829-.10702-.482088-.15012-.482088-.15012.01253.0798.9285.80656 1.223059.94778 2.597581 1.24528 5.561868 1.36618 8.374598 1.18073 3.616909-.23844 7.290383-.98917 10.523855-2.68174 1.159993-.60721 2.744339-1.47396 2.657775-2.90617-.08366-1.38576-1.175451-2.00426-2.275527-2.28201zM34.156642 26.16279c2.567685 8.45961-17.73623 6.57134-22.569166 5.9876-2.883455-.38255-5.696422-.85756-8.46412-1.37288 2.109221 1.6158 4.958698 2.11336 7.511503 2.52975 6.036372.98455 12.25443 1.04659 18.311991.17092 2.430079-.43902 5.134862-.92873 7.103686-2.52598.463798-.34945.62141-.80182.594564-1.27786-.04315-.76525-.562961-1.59168-1.053758-2.15013-.410403-.51493-.909663-.96544-1.4347-1.36151z" fill="#b3b3b3"/>
</svg>
