<svg xmlns="http://www.w3.org/2000/svg" width="707.674016" height="539.558778" viewBox="0 0 187.23875 142.75826"><path d="M.013323 2.09434c4.431137.05318 11.690623.598797 17.336651 1.999544 11.57731 2.872266 23.96985 5.614473 33.343236 12.991713 7.560375 5.950331 14.872151 14.196837 16.505459 23.678294C69.503752 54.145055 56.543593 66.47129 56.428493 80.04905c-.04316 5.09579 1.02507 9.38937 3.791561 14.8103 5.441732 10.66306 14.65919 19.80799 24.573423 26.76487 14.94018 10.48361 32.39127 14.26945 50.52369 21.10433h46.58151c17.11207.65396-41.20428-9.66415-61.12021-13.69305-9.30027-1.80299-21.07381-10.67148-32.61072-16.10409-11.536906-5.43262-25.465837-18.76802-27.40536-26.97253-1.428478-20.05514 14.508136-30.228658 8.817664-48.788882C63.586319 18.095716 45.137606 8.495011 24.035197 3.740145 16.384541 2.08671 9.363744.051112 0 .198426z" style="line-height:normal;font-variant-ligatures:normal;font-variant-position:normal;font-variant-caps:normal;font-variant-numeric:normal;font-variant-alternates:normal;font-feature-settings:normal;text-indent:0;text-align:start;text-decoration-line:none;text-decoration-style:solid;text-decoration-color:#000;text-transform:none;text-orientation:mixed;white-space:normal;shape-padding:0;isolation:auto;mix-blend-mode:normal;solid-color:#000;solid-opacity:1" color="#000" font-weight="400" font-family="sans-serif" overflow="visible" fill="#784421"/><path d="M2.249674 4.345765l-2.236352.04077v1.500807c3.400819-.178643 20.222212 3.013006 25.633828 4.827518 11.53445 3.867498 19.462029 7.841871 27.733762 15.338651 8.030556 7.278195 5.378463 22.948584.176004 33.464719-4.815703 9.73435-10.219243 22.51285-9.040541 34.26709 1.046377 10.43469 7.090487 20.2506 13.906071 28.22087 7.795071 9.11569 19.931266 15.49535 29.416231 20.72235l23.47864-.002c-9.49339-3.95043-18.82526-9.90193-27.46895-14.51476-10.981585-5.86048-23.780679-15.86873-29.461033-26.42494-9.742751-14.76902-2.425151-30.35464 3.035226-44.63545 6.589398-15.479267 4.819124-27.841078-7.792543-37.206543-9.808709-7.167384-23.483868-11.910941-34.842128-14.151596C9.246758 4.700147 2.249674 4.345522 2.249674 4.345522z" style="line-height:normal;font-variant-ligatures:normal;font-variant-position:normal;font-variant-caps:normal;font-variant-numeric:normal;font-variant-alternates:normal;font-feature-settings:normal;text-indent:0;text-align:start;text-decoration-line:none;text-decoration-style:solid;text-decoration-color:#000;text-transform:none;text-orientation:mixed;white-space:normal;shape-padding:0;isolation:auto;mix-blend-mode:normal;solid-color:#000;solid-opacity:1" color="#000" font-weight="400" font-family="sans-serif" overflow="visible" fill="#784421"/><path d="M.013322 11.533657c10.894812.447784 28.0287 5.114261 34.593269 8.669833 8.809349 4.904188 14.574684 11.300894 13.905706 20.233687C47.334963 51.623035 42.13426 60.70695 37.583582 70.31666c-4.556898 9.62283-8.383571 20.04855-5.244782 32.76501l.003.0117.0034.0113c2.49634 9.81234 6.955351 19.28686 12.337621 26.35591 2.873932 3.77463 7.391181 9.81923 10.928449 13.26799h14.761012c-7.125093-5.09508-14.849755-13.12056-19.050872-18.63832-4.697567-6.16976-10.22075-13.66962-12.498527-22.60977-.000441-.002.000442-.003 0-.005-2.643043-10.71428-.487158-22.49081 3.904468-31.76463 4.392286-9.27523 12.321672-25.156414 8.369307-37.458921C42.079824 14.615331 21.423952 11.793382 4.678805 9.222764c-1.676733-.265629-3.233053-.590112-4.665483-.281613z" style="line-height:normal;font-variant-ligatures:normal;font-variant-position:normal;font-variant-caps:normal;font-variant-numeric:normal;font-variant-alternates:normal;font-feature-settings:normal;text-indent:0;text-align:start;text-decoration-line:none;text-decoration-style:solid;text-decoration-color:#000;text-transform:none;text-orientation:mixed;white-space:normal;shape-padding:0;isolation:auto;mix-blend-mode:normal;solid-color:#000;solid-opacity:1" color="#000" font-weight="400" font-family="sans-serif" overflow="visible" fill="#784421"/><path style="line-height:normal;font-variant-ligatures:normal;font-variant-position:normal;font-variant-caps:normal;font-variant-numeric:normal;font-variant-alternates:normal;font-feature-settings:normal;text-indent:0;text-align:start;text-decoration-line:none;text-decoration-style:solid;text-decoration-color:#000;text-transform:none;text-orientation:mixed;white-space:normal;shape-padding:0;isolation:auto;mix-blend-mode:normal;solid-color:#000;solid-opacity:1" d="M.013318 16.109222c6.862391 1.0794 13.573511 1.96917 19.969681 3.99031 7.54063 2.38277 15.187549 6.17861 17.879719 10.75919 2.138871 3.63918 2.705862 7.19224 2.099982 11.473119-.60588 4.28089-2.51605 9.243322-5.462201 14.926789l-.0021.002-.0021.003c-6.925231 13.41864-14.74074 26.24884-14.83189 42.12909-.10235 17.82932 2.96832 28.72092 14.94361 42.08338.378791.42267.812009.8334 1.199009 1.25246h9.663891c-2.156569-1.89639-4.165611-3.78599-5.88989-5.71-10.686579-11.92449-13.33092-21.46251-13.23835-37.58833.0785-13.67327 3.75856-25.44204 10.806639-39.09817 2.574602-5.783414 4.972402-14.191864 5.799971-19.652166.773181-5.463011-3.379261-14.58882-8.560411-17.00049-12.334419-6.289012-21.936239-9.003972-34.37556-9.584912z" color="#000" font-weight="400" font-family="sans-serif" overflow="visible" fill="#784421"/><path style="line-height:normal;font-variant-ligatures:normal;font-variant-position:normal;font-variant-caps:normal;font-variant-numeric:normal;font-variant-alternates:normal;font-feature-settings:normal;text-indent:0;text-align:start;text-decoration-line:none;text-decoration-style:solid;text-decoration-color:#000;text-transform:none;text-orientation:mixed;white-space:normal;shape-padding:0;isolation:auto;mix-blend-mode:normal;solid-color:#000;solid-opacity:1" d="M.036818 18.916652l-.0235 2.13491c9.56752 3.03195 23.019331 5.853211 29.680771 12.91938 1.69124 1.877621 2.447149 3.99574 1.707631 6.419239C25.681269 57.19973 15.773389 73.87167 10.188918 91.75393c-4.718809 20.42679-5.52452 33.28661 4.731431 49.81464.25658.41351.46871.75713.71783 1.15999h9.79755c-1.13928-1.55373-2.32125-3.12845-3.35007-4.74517-10.12248-15.90687-13.12857-25.92879-8.94175-44.19152 1.659409-8.49011 15.605839-35.01859 19.312689-42.780507 3.706852-7.76192 5.610201-12.860491 2.144842-17.721292-3.465351-4.860819-13.518341-7.634869-19.736311-10.178119z" color="#000" font-weight="400" font-family="sans-serif" overflow="visible" fill="#784421"/><path d="M.013322 5.127112c2.958698.22005 6.873112.548615 11.403289 1.432953 9.908606 1.934267 20.335761 4.474328 28.83061 8.963761 5.825513 3.107662 10.903267 6.783185 14.900646 10.971419 7.482901 7.840153 5.378462 22.065106.176004 32.581245-4.815704 9.73435-9.791734 18.46991-8.157065 31.61622 1.214518 10.95039 6.76101 21.40935 14.647865 28.94552 10.839255 8.00037 22.644396 17.46402 33.577826 23.08961h29.05755c-24.06679-7.3521-48.607219-16.32925-63.323108-33.77569-5.443268-6.45327-8.680368-14.92014-9.334503-22.50035-.864418-10.01704 3.841862-20.40706 7.838816-30.18377 6.366343-15.572348 4.731696-25.632414-7.879971-34.997867-7.17902-5.281182-15.126581-9.300952-23.252567-12.101786C19.089782 5.925342 9.20889 4.490608.013322 3.675331z" style="line-height:normal;font-variant-ligatures:normal;font-variant-position:normal;font-variant-caps:normal;font-variant-numeric:normal;font-variant-alternates:normal;font-feature-settings:normal;text-indent:0;text-align:start;text-decoration-line:none;text-decoration-style:solid;text-decoration-color:#000;text-transform:none;text-orientation:mixed;white-space:normal;shape-padding:0;isolation:auto;mix-blend-mode:normal;solid-color:#000;solid-opacity:1" color="#000" font-weight="400" font-family="sans-serif" overflow="visible" fill="#c87137"/><path d="M.013322 10.393435c10.264389 1.163866 18.299503 2.156972 27.475259 5.211645 7.174603 2.388476 13.653419 6.157038 17.779465 10.482794 3.276803 3.699914 5.39871 9.947334 5.011206 14.169846-1.027886 11.200569-4.965394 17.88622-9.516072 27.49593-4.556897 9.62283-8.912738 19.51939-5.773949 32.23585 2.615945 10.59821.002.008.003.0117.0011.004.0034.0113.0034.0113 2.961578 9.68209 6.95535 19.28686 12.337621 26.35591 3.748893 4.92382 9.125406 12.03729 13.950503 16.36016h15.974879c-9.321554-6.22833-18.58602-15.5569-23.286794-21.73091-4.697558-6.16976-10.220863-13.6696-12.498526-22.60977-.000663-.002.000441-.003 0-.005-2.643101-10.71426-.487152-22.49081 3.904467-31.76463 3.369803-7.11603 8.079144-17.079643 8.249165-26.889597.12682-7.31284-1.807332-10.938807-6.802772-15.557868-6.507998-6.017668-15.413007-9.639639-24.378264-11.962577C14.430339 10.131349 6.43584 8.954891.013322 8.552543z" style="line-height:normal;font-variant-ligatures:normal;font-variant-position:normal;font-variant-caps:normal;font-variant-numeric:normal;font-variant-alternates:normal;font-feature-settings:normal;text-indent:0;text-align:start;text-decoration-line:none;text-decoration-style:solid;text-decoration-color:#000;text-transform:none;text-orientation:mixed;white-space:normal;shape-padding:0;isolation:auto;mix-blend-mode:normal;solid-color:#000;solid-opacity:1" color="#000" font-weight="400" font-family="sans-serif" overflow="visible" fill="#c87137"/><path d="M.711068 0l.0051 1.203413c8.505526.257105 17.54425 1.304392 25.808111 3.846816 6.55415 2.016422 13.275357 4.153637 18.819859 6.942061 7.632551 4.172927 16.11538 11.726893 19.899131 17.817717 10.513347 17.01694-.157862 27.792443-5.628283 46.088353-1.059881 5.36083-.387385 10.448 2.379089 15.86893 5.441733 10.66306 16.685331 20.26643 27.573722 27.20661 19.14647 12.20386 63.83894 23.75464 63.83894 23.75464h33.83201s-61.85293-16.69462-95.70944-32.88916c-11.503716-5.50256-26.171283-18.63299-27.405483-26.9728-1.38684-9.37124 2.69355-17.26117 5.909115-24.11919C82.747124 31.631185 56.399425 12.823032 32.09392 5.312578 22.251373 2.271208 14.346777.389799 3.665196.06305 2.5524.02901 1.591614.00291.711068 0z" style="line-height:normal;font-variant-ligatures:normal;font-variant-position:normal;font-variant-caps:normal;font-variant-numeric:normal;font-variant-alternates:normal;font-feature-settings:normal;text-indent:0;text-align:start;text-decoration-line:none;text-decoration-style:solid;text-decoration-color:#000;text-transform:none;text-orientation:mixed;white-space:normal;shape-padding:0;isolation:auto;mix-blend-mode:normal;solid-color:#000;solid-opacity:1" color="#000" font-weight="400" font-family="sans-serif" overflow="visible" fill="#c87137"/><path style="line-height:normal;font-variant-ligatures:normal;font-variant-position:normal;font-variant-caps:normal;font-variant-numeric:normal;font-variant-alternates:normal;font-feature-settings:normal;text-indent:0;text-align:start;text-decoration-line:none;text-decoration-style:solid;text-decoration-color:#000;text-transform:none;text-orientation:mixed;white-space:normal;shape-padding:0;isolation:auto;mix-blend-mode:normal;solid-color:#000;solid-opacity:1" d="M.013318 13.707842v1.38432c1.30093.14612 2.8766.31326 4.21339.47769 12.700721 1.79676 30.274902 6.57813 35.116491 16.05586 4.898279 9.588741-.0021 19.006839-3.254631 25.720748-4.125019 8.51568-8.265189 15.13505-11.343959 24.92769-2.28775 8.60992-3.31741 18.53197-2.39539 26.85627.6582 5.52357 2.60566 11.82223 4.95474 16.38721 4.545989 7.30649 8.611291 11.74574 14.033709 17.21093H51.65831c-3.596431-2.85184-6.789261-5.85981-9.426631-8.80267-10.686581-11.92447-13.33092-21.46248-13.23835-37.58833.0785-13.67324 3.899591-25.36975 10.806631-39.09775 3.743579-8.500348 7.283998-20.736618 1.78684-27.647209C32.038699 18.134622 13.722029 14.849762.013318 13.707812z" color="#000" font-weight="400" font-family="sans-serif" overflow="visible" fill="#c87137"/><path style="line-height:normal;font-variant-ligatures:normal;font-variant-position:normal;font-variant-caps:normal;font-variant-numeric:normal;font-variant-alternates:normal;font-feature-settings:normal;text-indent:0;text-align:start;text-decoration-line:none;text-decoration-style:solid;text-decoration-color:#000;text-transform:none;text-orientation:mixed;white-space:normal;shape-padding:0;isolation:auto;mix-blend-mode:normal;solid-color:#000;solid-opacity:1" d="M.013318 18.066842v1.85496c2.13048.40973 13.15448 3.32388 19.535651 5.83497 6.1923 2.43676 11.438379 5.365981 13.34195 9.0321 1.140429 2.285249 1.23615 5.03654-.117321 8.468159C26.779129 58.41941 17.351599 74.6345 12.310129 90.77799c-4.718811 20.42678-4.99535 31.17038 5.2606 47.69841.94299 1.51969 1.92209 2.86727 2.77824 4.25216H30.5012c-2.016641-2.52316-4.044091-5.13309-5.765161-7.83766-10.12248-15.90687-12.9418-25.88695-8.94175-44.19154 1.84684-8.45132 14.280609-34.1351 17.987469-41.897009 2.034212-4.25949 3.23595-7.93982 2.760261-11.003068-.970831-6.251792-6.137731-9.733132-11.73354-12.391541-8.67284-4.12023-15.356661-5.61049-24.795161-7.3409z" color="#000" font-weight="400" font-family="sans-serif" overflow="visible" fill="#c87137"/><path d="M106.163787 101.16466c-9.87599-3.73867-12.32822-7.78992-15.87665-11.82554-3.09207-4.81288-1.48232-7.65175 2.50929-9.25253.00024-.0001.00027-.00026.00053-.00026 9.45445-5.24561 31.11096-7.21542 44.26467-3.11289 13.08266 4.08037 20.03319 8.15031 23.19654 11.87072 4.27519 4.58833.0752 11.82585-4.36894 13.76284-13.83824 5.38297-35.50448 3.83567-49.72543-1.44222z" fill="#2b1100" fill-opacity=".557604"/><path d="M89.395517 89.16725c15.69351 7.48389 44.43565 10.57409 55.37227 5.10578 15.2438-7.6219 15.47717-15.21534 10.39008-21.38772-13.78509-12.28157-15.74053-7.2034-21.93456-10.54975" fill="#564338"/><path d="M119.853517 59.81402c-10.64727.18025-21.86113.41893-31.25858 6.59346-7.067018 4.71135-9.404876 7.197-9.09714 12.28257 4.37041 16.17438 31.21224 14.65532 46.17091 13.04209 6.852-.82938 13.12021-3.91244 17.60808-6.58413 5.83209-3.48132 10.25397-8.65497 6.36973-14.79415-5.37404-8.25066-22.53126-10.64978-29.793-10.53982z" fill="#997864"/><path d="M93.218667 63.88133c5.87654 6.84999 23.30109 7.65058 32.06554 2.67584 8.66603-4.91888 9.04916-8.89607 6.07485-12.504917-8.05983-7.18077-9.20314-4.211682-12.82465-6.16821" fill="#564338"/><path d="M110.717387 46.409753c-6.22522.105389-12.78172.244938-18.2762 3.855048-8.5906 5.727069-5.87804 8.833109.77748 13.616529 0 0 11.3167 2.35007 20.89873 1.19024 4.00622-.48492 7.6711-2.28752 10.29505-3.8496 3.4099-2.03545 5.99527-5.06036 3.72424-8.649809-3.14207-4.823979-13.17352-6.226688-17.4193-6.1624z" fill="#997864"/><path d="M101.171857 48.033993c6.5685 3.132368 18.37701 4.20429 22.95452 1.915539 6.38028-3.19014 6.47795-6.36837 4.34876-8.95181-5.76973-5.140441-6.58819-3.01498-9.18069-4.415591" fill="#564338"/><path d="M113.698537 35.526753c-4.4564.0755-9.14995.175329-13.08325 2.759678-6.14969 4.09979-4.20786 6.32329.55657 9.747562 0 0 8.1012 1.682319 14.96062.852049 2.8679-.347139 5.49145-1.637549 7.36984-2.755779 2.44102-1.4571 4.2918-3.622532 2.66605-6.192081-2.2493-3.453299-9.43043-4.457451-12.46983-4.411421z" fill="#997864"/></svg>