<svg xmlns="http://www.w3.org/2000/svg" width="563.556926" height="394.466608" viewBox="0 0 149.10777 104.36929">
  <path style="line-height:normal;font-variant-ligatures:normal;font-variant-position:normal;font-variant-caps:normal;font-variant-numeric:normal;font-variant-alternates:normal;font-feature-settings:normal;text-indent:0;text-align:start;text-decoration-line:none;text-decoration-style:solid;text-decoration-color:#000;text-transform:none;text-orientation:mixed;white-space:normal;shape-padding:0;isolation:auto;mix-blend-mode:normal;solid-color:#000;solid-opacity:1" d="M62.484413 22.552049c-7.371882.77696-19.28138 1.74229-26.85584 7.945531-1.318322 1.107749-1.73403 1.747779-2.206922 3.770979.0957 3.542779 2.74534 6.866731 6.36461 9.772661 25.79085 17.861999 60.57104 22.213297 88.851356 22.456107l.0214-7.797397c-11.14555-.0303-26.41499-.556792-41.901869-3.021491-7.061819-1.67934-16.84276-4.158409-26.56323-7.875429-5.46064-2.8199-21.89563-9.10703-20.19523-14.13048.41052-1.2128 1.87811-2.35195 4.812411-3.350872 6.515438-2.113568 14.73684-3.516069 19.11581-4.847479z" color="#000" font-weight="400" font-family="sans-serif" overflow="visible" fill="#784421"/>
  <path style="line-height:normal;font-variant-ligatures:normal;font-variant-position:normal;font-variant-caps:normal;font-variant-numeric:normal;font-variant-alternates:normal;font-feature-settings:normal;text-indent:0;text-align:start;text-decoration-line:none;text-decoration-style:solid;text-decoration-color:#000;text-transform:none;text-orientation:mixed;white-space:normal;shape-padding:0;isolation:auto;mix-blend-mode:normal;solid-color:#000;solid-opacity:1" d="M60.832442 18.202569c-14.190679 2.51458-24.2469 3.24578-32.42515 7.30716-5.5925 2.77727-7.2649 5.656781-7.81558 8.794189-.57931 3.300532.057 6.630821 3.59181 10.946191 5.738191 7.005331 13.526101 12.737139 22.09235 16.925121 11.93807 5.836447 24.845102 9.453097 33.999391 11.539227l.01209.002.01209.003c16.696312 3.69231 33.086214 4.83225 48.837504 4.83225v-7.79749c-15.3726 0-31.232642-1.12726-47.153142-4.64798-13.11057-2.997545-39.53923-10.027834-50.702052-21.387495-2.59499-2.64075-4.22757-5.5685-4.59665-8.26218-.46193-3.371419 1.116721-6.457569 5.6029-8.437521 9.331691-4.118499 19.572481-6.182799 29.462561-7.437529z" color="#000" font-weight="400" font-family="sans-serif" overflow="visible" fill="#784421"/>
  <path style="line-height:normal;font-variant-ligatures:normal;font-variant-position:normal;font-variant-caps:normal;font-variant-numeric:normal;font-variant-alternates:normal;font-feature-settings:normal;text-indent:0;text-align:start;text-decoration-line:none;text-decoration-style:solid;text-decoration-color:#000;text-transform:none;text-orientation:mixed;white-space:normal;shape-padding:0;isolation:auto;mix-blend-mode:normal;solid-color:#000;solid-opacity:1" d="M60.192304 13.779889c-20.885783 2.42554-28.80983 2.91421-40.433122 8.81949-12.65393 6.34471-11.69174 18.16504-6.40277 26.117721 11.75417 17.175437 33.65998 28.429107 55.78165 34.373727 22.121661 5.94462 42.587795 7.35857 59.597495 7.30864l.80239-6.97217c-21.03388-.76743-38.007163-1.42332-57.773255-7.32503-16.120909-4.81334-32.07122-11.332457-45.35576-21.459257-9.46472-7.21497-16.07083-21.148762-6.42017-27.81346 3.75992-3.148751 10.6454-5.327301 18.22032-6.754191 7.574931-1.42687 15.719301-2.21615 22.355091-3.61695z" color="#000" font-weight="400" font-family="sans-serif" overflow="visible" fill="#784421"/>
  <path style="line-height:normal;font-variant-ligatures:normal;font-variant-position:normal;font-variant-caps:normal;font-variant-numeric:normal;font-variant-alternates:normal;font-feature-settings:normal;text-indent:0;text-align:start;text-decoration-line:none;text-decoration-style:solid;text-decoration-color:#000;text-transform:none;text-orientation:mixed;white-space:normal;shape-padding:0;isolation:auto;mix-blend-mode:normal;solid-color:#000;solid-opacity:1" d="M60.193941 9.317799c-11.191618 1.66374-22.77387 1.2331-35.347099 5.11085-16.24202 5.00925-24.9759 12.303741-24.8454 21.68989.17219 12.385191 7.06732 22.427441 14.71213 30.778478 10.68827 11.59924 26.25902 22.51467 41.94498 28.12093 27.601061 9.86478 58.906015 9.19157 76.983255 9.35134l-.34408-6.97217c-37.383244-2.08217-81.596035-4.96782-114.732415-35.391956-18.96327-18.23634-21.07512-37.287642 7.70715-44.949762 11.354691-2.75594 22.50232-3.17013 34.65569-4.97684z" color="#000" font-weight="400" font-family="sans-serif" overflow="visible" fill="#784421"/>
  <path d="M62.484413 22.552049c-7.371882.77696-19.28138 1.74229-26.85584 7.945531-1.318322 1.107749-2.2045 2.314548-2.206922 3.770979-.01979 11.85903 27.896222 19.655171 39.353532 22.909411 18.72352 5.168249 38.606744 6.27938 56.275044 6.431079l-.39124-4.909119c-11.14556-.0303-26.415-.556792-41.901874-3.021491-7.061822-1.67934-16.84276-4.158409-26.563222-7.875429-5.460638-2.8199-21.895639-9.10703-20.195238-14.13048.41053-1.2128 2.280938-3.619 5.225028-4.588701 6.505861-2.14286 13.907421-2.90345 18.7032-3.60965z" style="line-height:normal;font-variant-ligatures:normal;font-variant-position:normal;font-variant-caps:normal;font-variant-numeric:normal;font-variant-alternates:normal;font-feature-settings:normal;text-indent:0;text-align:start;text-decoration-line:none;text-decoration-style:solid;text-decoration-color:#000;text-transform:none;text-orientation:mixed;white-space:normal;shape-padding:0;isolation:auto;mix-blend-mode:normal;solid-color:#000;solid-opacity:1" color="#000" font-weight="400" font-family="sans-serif" overflow="visible" fill="#c87137"/>
  <path d="M60.832442 18.202569c-14.190679 2.51458-24.2469 3.24578-32.42515 7.30716-4.948 2.71281-7.44458 4.72916-8.16736 8.621141-3.09571 11.347389 16.4341 21.158779 29.336841 27.631739 11.75485 3.941858 24.401658 8.467528 36.79016 10.845808 14.071387 2.70135 29.526934 3.57175 43.595384 3.87992l-.82523-5.73434c-15.3726 0-31.232623-1.12724-47.153134-4.64797-13.110562-2.997538-39.539222-10.027827-50.70204-21.387498-2.594992-2.64075-4.227582-5.568489-4.596652-8.26217-.461939-3.371429 1.116722-7.695409 5.602901-9.67536 9.331691-4.1185 19.572481-5.77019 29.462561-7.02492z" style="line-height:normal;font-variant-ligatures:normal;font-variant-position:normal;font-variant-caps:normal;font-variant-numeric:normal;font-variant-alternates:normal;font-feature-settings:normal;text-indent:0;text-align:start;text-decoration-line:none;text-decoration-style:solid;text-decoration-color:#000;text-transform:none;text-orientation:mixed;white-space:normal;shape-padding:0;isolation:auto;mix-blend-mode:normal;solid-color:#000;solid-opacity:1" color="#000" font-weight="400" font-family="sans-serif" overflow="visible" fill="#c87137"/>
  <path d="M60.192304 13.779889c-20.885783 2.42554-28.80983 2.91421-40.433122 8.81949-8.00228 4.012361-10.55916 10.21453-10.02 16.24354.3134 3.504621 2.52097 8.982671 5.26768 12.349851 13.027901 15.970907 36.13565 24.715607 58.25733 30.660217 22.121661 5.94462 40.112115 6.12074 57.121825 6.07081l-.84807-4.4965c-21.03388-.76743-38.007163-1.42332-57.773255-7.32503-16.120909-4.81334-32.07122-11.332457-45.35576-21.459257-9.46472-7.21497-16.07083-21.148762-6.42017-27.81346 3.75992-3.148751 10.6454-6.565141 18.22032-7.992021 7.574931-1.42688 15.719301-1.80354 22.355091-3.20434z" style="line-height:normal;font-variant-ligatures:normal;font-variant-position:normal;font-variant-caps:normal;font-variant-numeric:normal;font-variant-alternates:normal;font-feature-settings:normal;text-indent:0;text-align:start;text-decoration-line:none;text-decoration-style:solid;text-decoration-color:#000;text-transform:none;text-orientation:mixed;white-space:normal;shape-padding:0;isolation:auto;mix-blend-mode:normal;solid-color:#000;solid-opacity:1" color="#000" font-weight="400" font-family="sans-serif" overflow="visible" fill="#c87137"/>
  <path d="M60.193941 9.317799c-11.191618 1.66374-22.77387 1.2331-35.347099 5.11085-16.24202 5.00925-24.97591 12.303741-24.8454 21.68989.096 6.90789 1.88536 13.46232 5.66835 18.507821 15.30422 20.411857 34.64336 31.058227 53.46443 37.915907 27.601071 9.86478 56.017735 9.19158 74.094965 9.35135l.0685-4.4965c-37.383244-2.08217-81.596035-4.96782-114.732415-35.391956-18.96327-18.23634-18.59945-38.938102 10.182821-46.600222 11.35469-2.75593 21.677098-2.75751 33.83047-4.56422z" style="line-height:normal;font-variant-ligatures:normal;font-variant-position:normal;font-variant-caps:normal;font-variant-numeric:normal;font-variant-alternates:normal;font-feature-settings:normal;text-indent:0;text-align:start;text-decoration-line:none;text-decoration-style:solid;text-decoration-color:#000;text-transform:none;text-orientation:mixed;white-space:normal;shape-padding:0;isolation:auto;mix-blend-mode:normal;solid-color:#000;solid-opacity:1" color="#000" font-weight="400" font-family="sans-serif" overflow="visible" fill="#c87137"/>
  <path d="M58.895922 9.359769c-4.50515 3.21694-8.24792 7.73383-10.107329 12.83131-1.5181 4.16174-1.006732 9.22651 1.580178 12.999259 4.662152 6.799271 13.461662 9.59086 20.535911 11.456051 10.59575 2.793651 21.288452 3.727202 31.478055 4.07674 8.46496.29038 18.59026 1.255961 26.08012-.415679 9.36065-2.089161 21.8016-6.921241 20.5586-17.17009-.44776-3.691962-1.69891-7.116921-3.82762-10.111701-8.5231-11.99069-22.92227-18.5568-36.74446-20.75436-20.001664-3.180041-33.056234-4.691521-49.553455 7.08847z" fill="#564338"/>
  <path d="M88.330603.010739c-10.15774-.18384-19.12373 1.98658-29.4345 9.34906-4.50514 3.21695-8.24795 7.7338-10.10739 12.83128-1.51808 4.16174-1.00695 9.22655 1.57994 12.99931 1.54105 2.247431 3.55849 4.024421 5.791901 5.5074 4.001198 4.496461 56.082833 8.00418 73.800653 1.335849 10.13005-3.81258 15.08995-11.394419 9.8706-25.222119-8.66568-9.587631-19.10334-12.588051-31.38233-14.54027-7.50063-1.19251-14.024234-2.15019-20.118874-2.26051z" fill="#997864"/>
</svg>
