<?xml version="1.0" encoding="UTF-8" standalone="no"?>
<!-- Created with Inkscape (http://www.inkscape.org/) -->

<svg
   xmlns:dc="http://purl.org/dc/elements/1.1/"
   xmlns:cc="http://creativecommons.org/ns#"
   xmlns:rdf="http://www.w3.org/1999/02/22-rdf-syntax-ns#"
   xmlns:svg="http://www.w3.org/2000/svg"
   xmlns="http://www.w3.org/2000/svg"
   xmlns:sodipodi="http://sodipodi.sourceforge.net/DTD/sodipodi-0.dtd"
   xmlns:inkscape="http://www.inkscape.org/namespaces/inkscape"
   width="38.310711mm"
   height="38.310711mm"
   viewBox="0 0 38.31071 38.310711"
   version="1.1"
   id="svg5864"
   sodipodi:docname="logo-shadow.svg"
   inkscape:version="0.92.3 (2405546, 2018-03-11)">
  <defs
     id="defs5858" />
  <sodipodi:namedview
     id="base"
     pagecolor="#ffffff"
     bordercolor="#666666"
     borderopacity="1.0"
     inkscape:pageopacity="0.0"
     inkscape:pageshadow="2"
     inkscape:zoom="2.4171875"
     inkscape:cx="89.988775"
     inkscape:cy="42.269224"
     inkscape:document-units="mm"
     inkscape:current-layer="layer1"
     showgrid="false"
     fit-margin-top="0"
     fit-margin-left="0"
     fit-margin-right="0"
     fit-margin-bottom="0"
     inkscape:measure-start="0,0"
     inkscape:measure-end="0,0"
     inkscape:window-width="1920"
     inkscape:window-height="1025"
     inkscape:window-x="0"
     inkscape:window-y="27"
     inkscape:window-maximized="1" />
  <metadata
     id="metadata5861">
    <rdf:RDF>
      <cc:Work
         rdf:about="">
        <dc:format>image/svg+xml</dc:format>
        <dc:type
           rdf:resource="http://purl.org/dc/dcmitype/StillImage" />
        <dc:title></dc:title>
      </cc:Work>
    </rdf:RDF>
  </metadata>
  <g
     inkscape:label="Layer 1"
     inkscape:groupmode="layer"
     id="layer1"
     transform="translate(-37.216118,-128.21396)">
    <path
       style="display:inline;opacity:1;fill:#ffffff;stroke:none;stroke-width:0.56177592px;stroke-linecap:butt;stroke-linejoin:miter;stroke-opacity:1"
       d="m 61.8749,137.53285 c 1.73877,-0.41473 3.093084,-0.82163 1.998464,-2.36122 -0.468833,-0.65942 -1.275201,-0.94629 -1.977422,-1.26462 -1.89192,-0.85765 -4.055254,-1.01208 -6.156993,-0.83499 -0.849851,0.0301 -2.889507,0.55347 -4.677027,1.12445 -2.999639,0.8249 -3.233875,2.72729 -0.737063,3.54994 3.022931,0.95656 9.006836,0.25012 11.550041,-0.21356 z"
       id="path4840"
       inkscape:connector-curvature="0"
       sodipodi:nodetypes="cssccccc" />
    <path
       style="display:inline;opacity:1;fill:#ffffff;stroke:none;stroke-width:0.56177592px;stroke-linecap:butt;stroke-linejoin:miter;stroke-opacity:1"
       d="m 39.305644,156.97558 c -0.197378,1.2963 1.11356,2.37116 3.26301,3.19844 6.314562,2.43033 20.153677,2.76396 27.073235,0.69099 2.664207,-0.79815 4.63405,-2.03722 4.090796,-3.48247 -1.753908,-4.66611 -9.275555,-6.37352 -16.706348,-6.3755 -3.052529,0.25878 -16.889954,0.51277 -17.720693,5.96854 z"
       id="path4836"
       inkscape:connector-curvature="0"
       sodipodi:nodetypes="sssscs" />
    <path
       style="display:inline;opacity:1;fill:#ffffff;stroke:none;stroke-width:0.56177592px;stroke-linecap:butt;stroke-linejoin:miter;stroke-opacity:1"
       d="m 45.260208,146.99861 c 1.838588,2.02207 6.248446,2.52201 10.708795,2.07915 7.217873,-0.71668 14.685398,-4.04657 11.254379,-6.99651 -1.617129,-1.39034 -6.558181,-1.96589 -11.321241,-2.00621 -3.654554,0.052 -15.697733,1.13583 -10.641933,6.92357 z"
       id="path4838"
       inkscape:connector-curvature="0"
       sodipodi:nodetypes="csscc" />
    <path
       style="display:inline;opacity:1;fill:#b3b3b3;stroke:none;stroke-width:0.56177592px;stroke-linecap:butt;stroke-linejoin:miter;stroke-opacity:1"
       d="m 62.818068,134.32904 c 1.054872,0.7004 0.208503,1.92948 -0.772501,2.09142 -2.525496,0.85665 -5.23922,0.91762 -7.88124,0.9379 -1.771766,-0.0673 -3.709398,-0.0149 -5.389694,-0.65136 0.756173,1.20456 2.433241,1.28611 3.704833,1.45043 3.194129,0.23052 6.421253,-0.0822 9.566101,-0.64586 0.827685,-0.25136 2.340285,-0.40143 2.232255,-1.56359 -0.184723,-0.72437 -0.798511,-1.30926 -1.459754,-1.61894 z"
       id="path4923"
       inkscape:connector-curvature="0"
       sodipodi:nodetypes="cccccccc" />
    <path
       style="display:inline;opacity:1;fill:#b3b3b3;stroke:none;stroke-width:0.56177592px;stroke-linecap:butt;stroke-linejoin:miter;stroke-opacity:1"
       d="m 65.831381,141.32948 c 0.834797,0.35131 1.104641,1.45706 0.498453,2.15063 -5.441033,4.70792 -14.543905,5.99457 -20.520125,3.74087 -0.283829,-0.10702 -0.482088,-0.15012 -0.482088,-0.15012 0.01253,0.0798 0.9285,0.80656 1.223059,0.94778 2.597581,1.24528 5.561868,1.36618 8.374598,1.18073 3.616909,-0.23844 7.290383,-0.98917 10.523855,-2.68174 1.159993,-0.60721 2.744339,-1.47396 2.657775,-2.90617 -0.08366,-1.38576 -1.175451,-2.00426 -2.275527,-2.28201 z"
       id="path4926"
       inkscape:connector-curvature="0"
       sodipodi:nodetypes="ccscssssc" />
    <path
       style="display:inline;opacity:1;fill:#b3b3b3;stroke:none;stroke-width:0.56177592px;stroke-linecap:butt;stroke-linejoin:miter;stroke-opacity:1"
       d="m 71.37276,154.37675 c 2.567685,8.45961 -17.73623,6.57134 -22.569166,5.9876 -2.883455,-0.38255 -5.696422,-0.85756 -8.46412,-1.37288 2.109221,1.6158 4.958698,2.11336 7.511503,2.52975 6.036372,0.98455 12.25443,1.04659 18.311991,0.17092 2.430079,-0.43902 5.134862,-0.92873 7.103686,-2.52598 0.463798,-0.34945 0.62141,-0.80182 0.594564,-1.27786 -0.04315,-0.76525 -0.562961,-1.59168 -1.053758,-2.15013 -0.410403,-0.51493 -0.909663,-0.96544 -1.4347,-1.36151 z"
       id="path4929"
       inkscape:connector-curvature="0"
       sodipodi:nodetypes="cccsccsccc" />
  </g>
</svg>
