<?xml version="1.0" encoding="UTF-8" standalone="no"?>
<!-- Created with Inkscape (http://www.inkscape.org/) -->

<svg
   xmlns:dc="http://purl.org/dc/elements/1.1/"
   xmlns:cc="http://creativecommons.org/ns#"
   xmlns:rdf="http://www.w3.org/1999/02/22-rdf-syntax-ns#"
   xmlns:svg="http://www.w3.org/2000/svg"
   xmlns="http://www.w3.org/2000/svg"
   xmlns:sodipodi="http://sodipodi.sourceforge.net/DTD/sodipodi-0.dtd"
   xmlns:inkscape="http://www.inkscape.org/namespaces/inkscape"
   width="38.310711mm"
   height="38.310711mm"
   viewBox="0 0 38.31071 38.310711"
   version="1.1"
   id="svg5864"
   inkscape:version="0.92.3 (2405546, 2018-03-11)"
   sodipodi:docname="logo-plain.svg">
  <defs
     id="defs5858" />
  <sodipodi:namedview
     id="base"
     pagecolor="#ffffff"
     bordercolor="#666666"
     borderopacity="1.0"
     inkscape:pageopacity="0.0"
     inkscape:pageshadow="2"
     inkscape:zoom="1.2085937"
     inkscape:cx="159.2243"
     inkscape:cy="84.240468"
     inkscape:document-units="mm"
     inkscape:current-layer="layer1"
     showgrid="false"
     fit-margin-top="0"
     fit-margin-left="0"
     fit-margin-right="0"
     fit-margin-bottom="0"
     inkscape:measure-start="0,0"
     inkscape:measure-end="0,0"
     inkscape:window-width="1920"
     inkscape:window-height="1025"
     inkscape:window-x="0"
     inkscape:window-y="27"
     inkscape:window-maximized="1" />
  <metadata
     id="metadata5861">
    <rdf:RDF>
      <cc:Work
         rdf:about="">
        <dc:format>image/svg+xml</dc:format>
        <dc:type
           rdf:resource="http://purl.org/dc/dcmitype/StillImage" />
        <dc:title></dc:title>
      </cc:Work>
    </rdf:RDF>
  </metadata>
  <g
     inkscape:label="Layer 1"
     inkscape:groupmode="layer"
     id="layer1"
     transform="translate(-37.216118,-128.21396)">
    <path
       style="display:inline;opacity:1;fill:#ffffff;stroke:#ffffff;stroke-width:0.55361199px;stroke-linecap:butt;stroke-linejoin:miter;stroke-opacity:1"
       d="m 61.505705,136.91924 c 1.713505,-0.40871 3.048135,-0.80969 1.969411,-2.32691 -0.462023,-0.64983 -1.256671,-0.93256 -1.948672,-1.24625 -1.864425,-0.8452 -3.996336,-0.99736 -6.067517,-0.82287 -0.83751,0.0297 -2.84752,0.54544 -4.609069,1.10813 -2.956056,0.81289 -3.186888,2.68765 -0.726349,3.49833 2.979006,0.94269 8.875943,0.2465 11.382196,-0.21043 z"
       id="path4840-0"
       inkscape:connector-curvature="0"
       sodipodi:nodetypes="cssccccc" />
    <path
       style="display:inline;opacity:1;fill:#ffffff;stroke:#ffffff;stroke-width:0.55361199px;stroke-linecap:butt;stroke-linejoin:miter;stroke-opacity:1"
       d="m 39.264425,156.07942 c -0.194509,1.27746 1.097377,2.3367 3.215592,3.15196 6.222792,2.39501 19.860795,2.72379 26.679791,0.68094 2.625489,-0.78655 4.566723,-2.00761 4.031365,-3.43185 -1.728439,-4.59831 -9.140779,-6.2809 -16.463573,-6.28285 -3.008162,0.25502 -16.644508,0.50531 -17.463175,5.8818 z"
       id="path4836-9"
       inkscape:connector-curvature="0"
       sodipodi:nodetypes="sssscs" />
    <path
       style="display:inline;opacity:1;fill:#ffffff;stroke:#ffffff;stroke-width:0.55361199px;stroke-linecap:butt;stroke-linejoin:miter;stroke-opacity:1"
       d="m 45.132456,146.24743 c 1.811879,1.99269 6.157637,2.48537 10.553169,2.04892 7.112987,-0.70627 14.356312,-3.84557 11.203275,-6.99861 -1.791778,-1.09838 -6.575329,-1.83355 -11.269169,-1.87326 -3.601433,0.0513 -15.469603,1.1193 -10.487275,6.82295 z"
       id="path4838-3"
       inkscape:connector-curvature="0"
       sodipodi:nodetypes="csccc" />
  </g>
</svg>
