<?xml version="1.0" encoding="UTF-8" standalone="no"?>
<!-- Created with Inkscape (http://www.inkscape.org/) -->

<svg
   xmlns:dc="http://purl.org/dc/elements/1.1/"
   xmlns:cc="http://creativecommons.org/ns#"
   xmlns:rdf="http://www.w3.org/1999/02/22-rdf-syntax-ns#"
   xmlns:svg="http://www.w3.org/2000/svg"
   xmlns="http://www.w3.org/2000/svg"
   xmlns:sodipodi="http://sodipodi.sourceforge.net/DTD/sodipodi-0.dtd"
   xmlns:inkscape="http://www.inkscape.org/namespaces/inkscape"
   width="187.23875mm"
   height="142.75826mm"
   viewBox="0 0 187.23875 142.75826"
   version="1.1"
   id="svg5197"
   inkscape:version="0.92.3 (2405546, 2018-03-11)"
   sodipodi:docname="multiple-rocks.svg">
  <defs
     id="defs5191" />
  <sodipodi:namedview
     id="base"
     pagecolor="#ffffff"
     bordercolor="#666666"
     borderopacity="1.0"
     inkscape:pageopacity="0.0"
     inkscape:pageshadow="2"
     inkscape:zoom="0.60429688"
     inkscape:cx="278.1456"
     inkscape:cy="214.83736"
     inkscape:document-units="mm"
     inkscape:current-layer="layer1"
     showgrid="false"
     fit-margin-top="0"
     fit-margin-left="0"
     fit-margin-right="0"
     fit-margin-bottom="0"
     inkscape:window-width="1920"
     inkscape:window-height="1025"
     inkscape:window-x="0"
     inkscape:window-y="27"
     inkscape:window-maximized="1" />
  <metadata
     id="metadata5194">
    <rdf:RDF>
      <cc:Work
         rdf:about="">
        <dc:format>image/svg+xml</dc:format>
        <dc:type
           rdf:resource="http://purl.org/dc/dcmitype/StillImage" />
        <dc:title></dc:title>
      </cc:Work>
    </rdf:RDF>
  </metadata>
  <g
     inkscape:label="Layer 1"
     inkscape:groupmode="layer"
     id="layer1"
     style="opacity:1"
     transform="translate(-16.934373,-44.13757)">
    <path
       sodipodi:nodetypes="caaaasacccsccccc"
       inkscape:connector-curvature="0"
       id="path3938"
       d="m 16.947696,46.23191 c 4.431137,0.05318 11.690623,0.598797 17.336651,1.999544 11.57731,2.872266 23.96985,5.614473 33.343236,12.991713 7.560375,5.950331 14.872151,14.196837 16.505459,23.678294 2.305083,13.381164 -10.655076,25.707399 -10.770176,39.285159 -0.04316,5.09579 1.02507,9.38937 3.791561,14.8103 5.441732,10.66306 14.65919,19.80799 24.573423,26.76487 14.94018,10.48361 32.39127,14.26945 50.52369,21.10433 h 46.58151 c 17.11207,0.65396 -41.20428,-9.66415 -61.12021,-13.69305 -9.30027,-1.80299 -21.07381,-10.67148 -32.61072,-16.10409 C 93.565214,151.63636 79.636283,138.30096 77.69676,130.09645 76.268282,110.04131 92.204896,99.867792 86.514424,81.307568 80.520692,62.233286 62.071979,52.632581 40.96957,47.877715 33.318914,46.22428 26.298117,44.188682 16.934373,44.335996 Z"
       style="color:#000000;font-style:normal;font-variant:normal;font-weight:normal;font-stretch:normal;font-size:medium;line-height:normal;font-family:sans-serif;font-variant-ligatures:normal;font-variant-position:normal;font-variant-caps:normal;font-variant-numeric:normal;font-variant-alternates:normal;font-feature-settings:normal;text-indent:0;text-align:start;text-decoration:none;text-decoration-line:none;text-decoration-style:solid;text-decoration-color:#000000;letter-spacing:normal;word-spacing:normal;text-transform:none;writing-mode:lr-tb;direction:ltr;text-orientation:mixed;dominant-baseline:auto;baseline-shift:baseline;text-anchor:start;white-space:normal;shape-padding:0;clip-rule:nonzero;display:inline;overflow:visible;visibility:visible;opacity:1;isolation:auto;mix-blend-mode:normal;color-interpolation:sRGB;color-interpolation-filters:linearRGB;solid-color:#000000;solid-opacity:1;vector-effect:none;fill:#784421;fill-opacity:1;fill-rule:nonzero;stroke:none;stroke-width:6.67825222;stroke-linecap:butt;stroke-linejoin:miter;stroke-miterlimit:4;stroke-dasharray:none;stroke-dashoffset:0;stroke-opacity:1;color-rendering:auto;image-rendering:auto;shape-rendering:auto;text-rendering:auto;enable-background:accumulate" />
    <path
       sodipodi:nodetypes="cccsssaaccscccscc"
       inkscape:connector-curvature="0"
       d="m 19.184047,48.483335 -2.236352,0.04077 v 1.500807 c 3.400819,-0.178643 20.222212,3.013006 25.633828,4.827518 11.53445,3.867498 19.462029,7.841871 27.733762,15.338651 8.030556,7.278195 5.378463,22.948584 0.176004,33.464719 -4.815703,9.73435 -10.219243,22.51285 -9.040541,34.26709 1.046377,10.43469 7.090487,20.2506 13.906071,28.22087 7.795071,9.11569 19.931266,15.49535 29.416231,20.72235 l 23.47864,-0.002 C 118.7583,182.91368 109.42643,176.96218 100.78274,172.34935 89.801155,166.48887 77.002061,156.48062 71.321707,145.92441 61.578956,131.15539 68.896556,115.56977 74.356933,101.28896 80.946331,85.809693 79.176057,73.447882 66.56439,64.082417 56.755681,56.915033 43.080522,52.171476 31.722262,49.930821 26.181131,48.837717 19.184047,48.483092 19.184047,48.483092 Z"
       style="color:#000000;font-style:normal;font-variant:normal;font-weight:normal;font-stretch:normal;font-size:medium;line-height:normal;font-family:sans-serif;font-variant-ligatures:normal;font-variant-position:normal;font-variant-caps:normal;font-variant-numeric:normal;font-variant-alternates:normal;font-feature-settings:normal;text-indent:0;text-align:start;text-decoration:none;text-decoration-line:none;text-decoration-style:solid;text-decoration-color:#000000;letter-spacing:normal;word-spacing:normal;text-transform:none;writing-mode:lr-tb;direction:ltr;text-orientation:mixed;dominant-baseline:auto;baseline-shift:baseline;text-anchor:start;white-space:normal;shape-padding:0;clip-rule:nonzero;display:inline;overflow:visible;visibility:visible;opacity:1;isolation:auto;mix-blend-mode:normal;color-interpolation:sRGB;color-interpolation-filters:linearRGB;solid-color:#000000;solid-opacity:1;vector-effect:none;fill:#784421;fill-opacity:1;fill-rule:nonzero;stroke:none;stroke-width:6.67825222;stroke-linecap:butt;stroke-linejoin:miter;stroke-miterlimit:4;stroke-dasharray:none;stroke-dashoffset:0;stroke-opacity:1;color-rendering:auto;image-rendering:auto;shape-rendering:auto;text-rendering:auto;enable-background:accumulate"
       id="path3940" />
    <path
       sodipodi:nodetypes="cccscccccccccscccc"
       inkscape:connector-curvature="0"
       d="m 16.947695,55.671227 c 10.894812,0.447784 28.0287,5.114261 34.593269,8.669833 8.809349,4.904188 14.574684,11.300894 13.905706,20.233687 -1.177334,11.185858 -6.378037,20.269773 -10.928715,29.879483 -4.556898,9.62283 -8.383571,20.04855 -5.244782,32.76501 l 0.003,0.0117 0.0034,0.0113 c 2.49634,9.81234 6.955351,19.28686 12.337621,26.35591 2.873932,3.77463 7.391181,9.81923 10.928449,13.26799 H 87.306655 C 80.181562,181.77106 72.4569,173.74558 68.255783,168.22782 63.558216,162.05806 58.035033,154.5582 55.757256,145.61805 c -4.41e-4,-0.002 4.42e-4,-0.003 0,-0.005 -2.643043,-10.71428 -0.487158,-22.49081 3.904468,-31.76463 C 64.05401,104.57319 71.983396,88.692006 68.031031,76.389499 59.014197,58.752901 38.358325,55.930952 21.613178,53.360334 19.936445,53.094705 18.380125,52.770222 16.947695,53.078721 Z"
       style="color:#000000;font-style:normal;font-variant:normal;font-weight:normal;font-stretch:normal;font-size:medium;line-height:normal;font-family:sans-serif;font-variant-ligatures:normal;font-variant-position:normal;font-variant-caps:normal;font-variant-numeric:normal;font-variant-alternates:normal;font-feature-settings:normal;text-indent:0;text-align:start;text-decoration:none;text-decoration-line:none;text-decoration-style:solid;text-decoration-color:#000000;letter-spacing:normal;word-spacing:normal;text-transform:none;writing-mode:lr-tb;direction:ltr;text-orientation:mixed;dominant-baseline:auto;baseline-shift:baseline;text-anchor:start;white-space:normal;shape-padding:0;clip-rule:nonzero;display:inline;overflow:visible;visibility:visible;opacity:1;isolation:auto;mix-blend-mode:normal;color-interpolation:sRGB;color-interpolation-filters:linearRGB;solid-color:#000000;solid-opacity:1;vector-effect:none;fill:#784421;fill-opacity:1;fill-rule:nonzero;stroke:none;stroke-width:6.67825222;stroke-linecap:butt;stroke-linejoin:miter;stroke-miterlimit:4;stroke-dasharray:none;stroke-dashoffset:0;stroke-opacity:1;color-rendering:auto;image-rendering:auto;shape-rendering:auto;text-rendering:auto;enable-background:accumulate"
       id="path3942" />
    <path
       id="path3946"
       style="color:#000000;font-style:normal;font-variant:normal;font-weight:normal;font-stretch:normal;font-size:medium;line-height:normal;font-family:sans-serif;font-variant-ligatures:normal;font-variant-position:normal;font-variant-caps:normal;font-variant-numeric:normal;font-variant-alternates:normal;font-feature-settings:normal;text-indent:0;text-align:start;text-decoration:none;text-decoration-line:none;text-decoration-style:solid;text-decoration-color:#000000;letter-spacing:normal;word-spacing:normal;text-transform:none;writing-mode:lr-tb;direction:ltr;text-orientation:mixed;dominant-baseline:auto;baseline-shift:baseline;text-anchor:start;white-space:normal;shape-padding:0;clip-rule:nonzero;display:inline;overflow:visible;visibility:visible;opacity:1;isolation:auto;mix-blend-mode:normal;color-interpolation:sRGB;color-interpolation-filters:linearRGB;solid-color:#000000;solid-opacity:1;vector-effect:none;fill:#784421;fill-opacity:1;fill-rule:nonzero;stroke:none;stroke-width:6.67825222;stroke-linecap:butt;stroke-linejoin:miter;stroke-miterlimit:4;stroke-dasharray:none;stroke-dashoffset:0;stroke-opacity:1;color-rendering:auto;image-rendering:auto;shape-rendering:auto;text-rendering:auto;enable-background:accumulate"
       d="m 16.947691,60.246792 c 6.862391,1.0794 13.573511,1.96917 19.969681,3.99031 7.54063,2.38277 15.187549,6.17861 17.879719,10.75919 2.138871,3.63918 2.705862,7.19224 2.099982,11.473119 -0.60588,4.28089 -2.51605,9.243322 -5.462201,14.926789 l -0.0021,0.002 -0.0021,0.003 c -6.925231,13.41864 -14.74074,26.24884 -14.83189,42.12909 -0.10235,17.82932 2.96832,28.72092 14.94361,42.08338 0.378791,0.42267 0.812009,0.8334 1.199009,1.25246 h 9.663891 c -2.156569,-1.89639 -4.165611,-3.78599 -5.88989,-5.71 -10.686579,-11.92449 -13.33092,-21.46251 -13.23835,-37.58833 0.0785,-13.67327 3.75856,-25.44204 10.806639,-39.09817 2.574602,-5.783414 4.972402,-14.191864 5.799971,-19.652166 0.773181,-5.463011 -3.379261,-14.58882 -8.560411,-17.00049 -12.334419,-6.289012 -21.936239,-9.003972 -34.37556,-9.584912 z"
       inkscape:connector-curvature="0"
       sodipodi:nodetypes="cccscccsccccsccccc" />
    <path
       id="path3948"
       style="color:#000000;font-style:normal;font-variant:normal;font-weight:normal;font-stretch:normal;font-size:medium;line-height:normal;font-family:sans-serif;font-variant-ligatures:normal;font-variant-position:normal;font-variant-caps:normal;font-variant-numeric:normal;font-variant-alternates:normal;font-feature-settings:normal;text-indent:0;text-align:start;text-decoration:none;text-decoration-line:none;text-decoration-style:solid;text-decoration-color:#000000;letter-spacing:normal;word-spacing:normal;text-transform:none;writing-mode:lr-tb;direction:ltr;text-orientation:mixed;dominant-baseline:auto;baseline-shift:baseline;text-anchor:start;white-space:normal;shape-padding:0;clip-rule:nonzero;display:inline;overflow:visible;visibility:visible;opacity:1;isolation:auto;mix-blend-mode:normal;color-interpolation:sRGB;color-interpolation-filters:linearRGB;solid-color:#000000;solid-opacity:1;vector-effect:none;fill:#784421;fill-opacity:1;fill-rule:nonzero;stroke:none;stroke-width:6.67825222;stroke-linecap:butt;stroke-linejoin:miter;stroke-miterlimit:4;stroke-dasharray:none;stroke-dashoffset:0;stroke-opacity:1;color-rendering:auto;image-rendering:auto;shape-rendering:auto;text-rendering:auto;enable-background:accumulate"
       d="m 16.971191,63.054222 -0.0235,2.13491 c 9.56752,3.03195 23.019331,5.853211 29.680771,12.91938 1.69124,1.877621 2.447149,3.99574 1.707631,6.419239 -5.720451,16.809549 -15.628331,33.481489 -21.212802,51.363749 -4.718809,20.42679 -5.52452,33.28661 4.731431,49.81464 0.25658,0.41351 0.46871,0.75713 0.71783,1.15999 h 9.79755 c -1.13928,-1.55373 -2.32125,-3.12845 -3.35007,-4.74517 -10.12248,-15.90687 -13.12857,-25.92879 -8.94175,-44.19152 1.659409,-8.49011 15.605839,-35.01859 19.312689,-42.780507 3.706852,-7.76192 5.610201,-12.860491 2.144842,-17.721292 C 48.070462,72.566822 38.017472,69.792772 31.799502,67.249522 Z"
       inkscape:connector-curvature="0"
       sodipodi:nodetypes="ccccccccscsccc" />
    <path
       sodipodi:nodetypes="cscssccccssscscc"
       inkscape:connector-curvature="0"
       d="m 16.947695,49.264682 c 2.958698,0.22005 6.873112,0.548615 11.403289,1.432953 9.908606,1.934267 20.335761,4.474328 28.83061,8.963761 5.825513,3.107662 10.903267,6.783185 14.900646,10.971419 7.482901,7.840153 5.378462,22.065106 0.176004,32.581245 -4.815704,9.73435 -9.791734,18.46991 -8.157065,31.61622 1.214518,10.95039 6.76101,21.40935 14.647865,28.94552 10.839255,8.00037 22.644396,17.46402 33.577826,23.08961 h 29.05755 C 117.31763,179.51331 92.777201,170.53616 78.061312,153.08972 72.618044,146.63645 69.380944,138.16958 68.726809,130.58937 67.862391,120.57233 72.568671,110.18231 76.565625,100.4056 82.931968,84.833252 81.297321,74.773186 68.685654,65.407733 61.506634,60.126551 53.559073,56.106781 45.433087,53.305947 36.024155,50.062912 26.143263,48.628178 16.947695,47.812901 Z"
       style="color:#000000;font-style:normal;font-variant:normal;font-weight:normal;font-stretch:normal;font-size:medium;line-height:normal;font-family:sans-serif;font-variant-ligatures:normal;font-variant-position:normal;font-variant-caps:normal;font-variant-numeric:normal;font-variant-alternates:normal;font-feature-settings:normal;text-indent:0;text-align:start;text-decoration:none;text-decoration-line:none;text-decoration-style:solid;text-decoration-color:#000000;letter-spacing:normal;word-spacing:normal;text-transform:none;writing-mode:lr-tb;direction:ltr;text-orientation:mixed;dominant-baseline:auto;baseline-shift:baseline;text-anchor:start;white-space:normal;shape-padding:0;clip-rule:nonzero;display:inline;overflow:visible;visibility:visible;opacity:1;isolation:auto;mix-blend-mode:normal;color-interpolation:sRGB;color-interpolation-filters:linearRGB;solid-color:#000000;solid-opacity:1;vector-effect:none;fill:#c87137;fill-opacity:1;fill-rule:nonzero;stroke:none;stroke-width:6.67825222;stroke-linecap:butt;stroke-linejoin:miter;stroke-miterlimit:4;stroke-dasharray:none;stroke-dashoffset:0;stroke-opacity:1;color-rendering:auto;image-rendering:auto;shape-rendering:auto;text-rendering:auto;enable-background:accumulate"
       id="path3970" />
    <path
       sodipodi:nodetypes="cscssssscccssssssscc"
       inkscape:connector-curvature="0"
       d="m 16.947695,54.531005 c 10.264389,1.163866 18.299503,2.156972 27.475259,5.211645 7.174603,2.388476 13.653419,6.157038 17.779465,10.482794 3.276803,3.699914 5.39871,9.947334 5.011206,14.169846 -1.027886,11.200569 -4.965394,17.88622 -9.516072,27.49593 -4.556897,9.62283 -8.912738,19.51939 -5.773949,32.23585 2.615945,10.59821 0.002,0.008 0.003,0.0117 0.0011,0.004 0.0034,0.0113 0.0034,0.0113 2.961578,9.68209 6.95535,19.28686 12.337621,26.35591 3.748893,4.92382 9.125406,12.03729 13.950503,16.36016 h 15.974879 c -9.321554,-6.22833 -18.58602,-15.5569 -23.286794,-21.73091 -4.697558,-6.16976 -10.220863,-13.6696 -12.498526,-22.60977 -6.63e-4,-0.002 4.41e-4,-0.003 0,-0.005 -2.643101,-10.71426 -0.487152,-22.49081 3.904467,-31.76463 3.369803,-7.11603 8.079144,-17.079643 8.249165,-26.889597 0.12682,-7.31284 -1.807332,-10.938807 -6.802772,-15.557868 C 57.250549,62.290697 48.34554,58.668726 39.380283,56.345788 31.364712,54.268919 23.370213,53.092461 16.947695,52.690113 Z"
       style="color:#000000;font-style:normal;font-variant:normal;font-weight:normal;font-stretch:normal;font-size:medium;line-height:normal;font-family:sans-serif;font-variant-ligatures:normal;font-variant-position:normal;font-variant-caps:normal;font-variant-numeric:normal;font-variant-alternates:normal;font-feature-settings:normal;text-indent:0;text-align:start;text-decoration:none;text-decoration-line:none;text-decoration-style:solid;text-decoration-color:#000000;letter-spacing:normal;word-spacing:normal;text-transform:none;writing-mode:lr-tb;direction:ltr;text-orientation:mixed;dominant-baseline:auto;baseline-shift:baseline;text-anchor:start;white-space:normal;shape-padding:0;clip-rule:nonzero;display:inline;overflow:visible;visibility:visible;opacity:1;isolation:auto;mix-blend-mode:normal;color-interpolation:sRGB;color-interpolation-filters:linearRGB;solid-color:#000000;solid-opacity:1;vector-effect:none;fill:#c87137;fill-opacity:1;fill-rule:nonzero;stroke:none;stroke-width:6.67825222;stroke-linecap:butt;stroke-linejoin:miter;stroke-miterlimit:4;stroke-dasharray:none;stroke-dashoffset:0;stroke-opacity:1;color-rendering:auto;image-rendering:auto;shape-rendering:auto;text-rendering:auto;enable-background:accumulate"
       id="path3972" />
    <path
       sodipodi:nodetypes="ccsccccaccsssssc"
       inkscape:connector-curvature="0"
       d="m 17.645441,44.13757 0.0051,1.203413 c 8.505526,0.257105 17.54425,1.304392 25.808111,3.846816 6.55415,2.016422 13.275357,4.153637 18.819859,6.942061 7.632551,4.172927 16.11538,11.726893 19.899131,17.817717 10.513347,17.01694 -0.157862,27.792443 -5.628283,46.088353 -1.059881,5.36083 -0.387385,10.448 2.379089,15.86893 5.441733,10.66306 16.685331,20.26643 27.573722,27.20661 19.14647,12.20386 63.83894,23.75464 63.83894,23.75464 h 33.83201 c 0,0 -61.85293,-16.69462 -95.70944,-32.88916 -11.503716,-5.50256 -26.171283,-18.63299 -27.405483,-26.9728 -1.38684,-9.37124 2.69355,-17.26117 5.909115,-24.11919 C 99.681497,75.768755 73.333798,56.960602 49.028293,49.450148 39.185746,46.408778 31.28115,44.527369 20.599569,44.20062 19.486773,44.16658 18.525987,44.14048 17.645441,44.13757 Z"
       style="color:#000000;font-style:normal;font-variant:normal;font-weight:normal;font-stretch:normal;font-size:medium;line-height:normal;font-family:sans-serif;font-variant-ligatures:normal;font-variant-position:normal;font-variant-caps:normal;font-variant-numeric:normal;font-variant-alternates:normal;font-feature-settings:normal;text-indent:0;text-align:start;text-decoration:none;text-decoration-line:none;text-decoration-style:solid;text-decoration-color:#000000;letter-spacing:normal;word-spacing:normal;text-transform:none;writing-mode:lr-tb;direction:ltr;text-orientation:mixed;dominant-baseline:auto;baseline-shift:baseline;text-anchor:start;white-space:normal;shape-padding:0;clip-rule:nonzero;display:inline;overflow:visible;visibility:visible;opacity:1;isolation:auto;mix-blend-mode:normal;color-interpolation:sRGB;color-interpolation-filters:linearRGB;solid-color:#000000;solid-opacity:1;vector-effect:none;fill:#c87137;fill-opacity:1;fill-rule:nonzero;stroke:none;stroke-width:6.67825222;stroke-linecap:butt;stroke-linejoin:miter;stroke-miterlimit:4;stroke-dasharray:none;stroke-dashoffset:0;stroke-opacity:1;color-rendering:auto;image-rendering:auto;shape-rendering:auto;text-rendering:auto;enable-background:accumulate"
       id="path3968" />
    <path
       id="path3976"
       style="color:#000000;font-style:normal;font-variant:normal;font-weight:normal;font-stretch:normal;font-size:medium;line-height:normal;font-family:sans-serif;font-variant-ligatures:normal;font-variant-position:normal;font-variant-caps:normal;font-variant-numeric:normal;font-variant-alternates:normal;font-feature-settings:normal;text-indent:0;text-align:start;text-decoration:none;text-decoration-line:none;text-decoration-style:solid;text-decoration-color:#000000;letter-spacing:normal;word-spacing:normal;text-transform:none;writing-mode:lr-tb;direction:ltr;text-orientation:mixed;dominant-baseline:auto;baseline-shift:baseline;text-anchor:start;white-space:normal;shape-padding:0;clip-rule:nonzero;display:inline;overflow:visible;visibility:visible;opacity:1;isolation:auto;mix-blend-mode:normal;color-interpolation:sRGB;color-interpolation-filters:linearRGB;solid-color:#000000;solid-opacity:1;vector-effect:none;fill:#c87137;fill-opacity:1;fill-rule:nonzero;stroke:none;stroke-width:6.67825222;stroke-linecap:butt;stroke-linejoin:miter;stroke-miterlimit:4;stroke-dasharray:none;stroke-dashoffset:0;stroke-opacity:1;color-rendering:auto;image-rendering:auto;shape-rendering:auto;text-rendering:auto;enable-background:accumulate"
       d="m 16.947691,57.845412 v 1.38432 c 1.30093,0.14612 2.8766,0.31326 4.21339,0.47769 12.700721,1.79676 30.274902,6.57813 35.116491,16.05586 4.898279,9.588741 -0.0021,19.006839 -3.254631,25.720748 -4.125019,8.51568 -8.265189,15.13505 -11.343959,24.92769 -2.28775,8.60992 -3.31741,18.53197 -2.39539,26.85627 0.6582,5.52357 2.60566,11.82223 4.95474,16.38721 4.545989,7.30649 8.611291,11.74574 14.033709,17.21093 h 10.320642 c -3.596431,-2.85184 -6.789261,-5.85981 -9.426631,-8.80267 -10.686581,-11.92447 -13.33092,-21.46248 -13.23835,-37.58833 0.0785,-13.67324 3.899591,-25.36975 10.806631,-39.09775 3.743579,-8.500348 7.283998,-20.736618 1.78684,-27.647209 C 48.973072,62.272192 30.656402,58.987332 16.947691,57.845382 Z"
       inkscape:connector-curvature="0"
       sodipodi:nodetypes="cccsscccccsscccc" />
    <path
       id="path3978"
       style="color:#000000;font-style:normal;font-variant:normal;font-weight:normal;font-stretch:normal;font-size:medium;line-height:normal;font-family:sans-serif;font-variant-ligatures:normal;font-variant-position:normal;font-variant-caps:normal;font-variant-numeric:normal;font-variant-alternates:normal;font-feature-settings:normal;text-indent:0;text-align:start;text-decoration:none;text-decoration-line:none;text-decoration-style:solid;text-decoration-color:#000000;letter-spacing:normal;word-spacing:normal;text-transform:none;writing-mode:lr-tb;direction:ltr;text-orientation:mixed;dominant-baseline:auto;baseline-shift:baseline;text-anchor:start;white-space:normal;shape-padding:0;clip-rule:nonzero;display:inline;overflow:visible;visibility:visible;opacity:1;isolation:auto;mix-blend-mode:normal;color-interpolation:sRGB;color-interpolation-filters:linearRGB;solid-color:#000000;solid-opacity:1;vector-effect:none;fill:#c87137;fill-opacity:1;fill-rule:nonzero;stroke:none;stroke-width:6.67825222;stroke-linecap:butt;stroke-linejoin:miter;stroke-miterlimit:4;stroke-dasharray:none;stroke-dashoffset:0;stroke-opacity:1;color-rendering:auto;image-rendering:auto;shape-rendering:auto;text-rendering:auto;enable-background:accumulate"
       d="m 16.947691,62.204412 v 1.85496 c 2.13048,0.40973 13.15448,3.32388 19.535651,5.83497 6.1923,2.43676 11.438379,5.365981 13.34195,9.0321 1.140429,2.285249 1.23615,5.03654 -0.117321,8.468159 -5.994469,15.162379 -15.421999,31.377469 -20.463469,47.520959 -4.718811,20.42678 -4.99535,31.17038 5.2606,47.69841 0.94299,1.51969 1.92209,2.86727 2.77824,4.25216 h 10.152231 c -2.016641,-2.52316 -4.044091,-5.13309 -5.765161,-7.83766 -10.12248,-15.90687 -12.9418,-25.88695 -8.94175,-44.19154 1.84684,-8.45132 14.280609,-34.1351 17.987469,-41.897009 2.034212,-4.25949 3.23595,-7.93982 2.760261,-11.003068 -0.970831,-6.251792 -6.137731,-9.733132 -11.73354,-12.391541 -8.67284,-4.12023 -15.356661,-5.61049 -24.795161,-7.3409 z"
       inkscape:connector-curvature="0"
       sodipodi:nodetypes="ccsccccccsssssc" />
    <path
       sodipodi:nodetypes="ccccsccc"
       inkscape:connector-curvature="0"
       id="path4778"
       d="m 123.09816,145.30223 c -9.87599,-3.73867 -12.32822,-7.78992 -15.87665,-11.82554 -3.09207,-4.81288 -1.48232,-7.65175 2.50929,-9.25253 2.4e-4,-1e-4 2.7e-4,-2.6e-4 5.3e-4,-2.6e-4 9.45445,-5.24561 31.11096,-7.21542 44.26467,-3.11289 13.08266,4.08037 20.03319,8.15031 23.19654,11.87072 4.27519,4.58833 0.0752,11.82585 -4.36894,13.76284 -13.83824,5.38297 -35.50448,3.83567 -49.72543,-1.44222 z"
       style="display:inline;opacity:1;fill:#2b1100;fill-opacity:0.55760366;stroke:none;stroke-width:0.18625769px;stroke-linecap:butt;stroke-linejoin:miter;stroke-opacity:1" />
    <path
       sodipodi:nodetypes="cscc"
       inkscape:connector-curvature="0"
       id="path4780"
       d="m 106.32989,133.30482 c 15.69351,7.48389 44.43565,10.57409 55.37227,5.10578 15.2438,-7.6219 15.47717,-15.21534 10.39008,-21.38772 -13.78509,-12.28157 -15.74053,-7.2034 -21.93456,-10.54975"
       style="display:inline;opacity:1;fill:#564338;fill-opacity:1;stroke:none;stroke-width:0.22086927px;stroke-linecap:butt;stroke-linejoin:miter;stroke-opacity:1" />
    <path
       sodipodi:nodetypes="cccccccc"
       inkscape:connector-curvature="0"
       id="path4782"
       d="m 136.78789,103.95159 c -10.64727,0.18025 -21.86113,0.41893 -31.25858,6.59346 -7.067018,4.71135 -9.404876,7.197 -9.09714,12.28257 4.37041,16.17438 31.21224,14.65532 46.17091,13.04209 6.852,-0.82938 13.12021,-3.91244 17.60808,-6.58413 5.83209,-3.48132 10.25397,-8.65497 6.36973,-14.79415 -5.37404,-8.25066 -22.53126,-10.64978 -29.793,-10.53982 z"
       style="display:inline;opacity:1;fill:#997864;fill-opacity:1;stroke:none;stroke-width:0.22086927px;stroke-linecap:butt;stroke-linejoin:miter;stroke-opacity:1" />
    <path
       sodipodi:nodetypes="cscc"
       inkscape:connector-curvature="0"
       id="path4808"
       d="m 110.15304,108.0189 c 5.87654,6.84999 23.30109,7.65058 32.06554,2.67584 8.66603,-4.91888 9.04916,-8.89607 6.07485,-12.504917 -8.05983,-7.18077 -9.20314,-4.211682 -12.82465,-6.16821"
       style="display:inline;opacity:1;fill:#564338;fill-opacity:1;stroke:none;stroke-width:0.12913737px;stroke-linecap:butt;stroke-linejoin:miter;stroke-opacity:1" />
    <path
       sodipodi:nodetypes="cccscccc"
       inkscape:connector-curvature="0"
       id="path4810"
       d="m 127.65176,90.547323 c -6.22522,0.105389 -12.78172,0.244938 -18.2762,3.855048 -8.5906,5.727069 -5.87804,8.833109 0.77748,13.616529 0,0 11.3167,2.35007 20.89873,1.19024 4.00622,-0.48492 7.6711,-2.28752 10.29505,-3.8496 3.4099,-2.03545 5.99527,-5.06036 3.72424,-8.649809 -3.14207,-4.823979 -13.17352,-6.226688 -17.4193,-6.1624 z"
       style="display:inline;opacity:1;fill:#997864;fill-opacity:1;stroke:none;stroke-width:0.12913737px;stroke-linecap:butt;stroke-linejoin:miter;stroke-opacity:1" />
    <path
       sodipodi:nodetypes="cscc"
       inkscape:connector-curvature="0"
       id="path4812"
       d="m 118.10623,92.171563 c 6.5685,3.132368 18.37701,4.20429 22.95452,1.915539 6.38028,-3.19014 6.47795,-6.36837 4.34876,-8.95181 -5.76973,-5.140441 -6.58819,-3.01498 -9.18069,-4.415591"
       style="display:inline;opacity:1;fill:#564338;fill-opacity:1;stroke:none;stroke-width:0.0924446px;stroke-linecap:butt;stroke-linejoin:miter;stroke-opacity:1" />
    <path
       sodipodi:nodetypes="cccscccc"
       inkscape:connector-curvature="0"
       id="path4814"
       d="m 130.63291,79.664323 c -4.4564,0.0755 -9.14995,0.175329 -13.08325,2.759678 -6.14969,4.09979 -4.20786,6.32329 0.55657,9.747562 0,0 8.1012,1.682319 14.96062,0.852049 2.8679,-0.347139 5.49145,-1.637549 7.36984,-2.755779 2.44102,-1.4571 4.2918,-3.622532 2.66605,-6.192081 -2.2493,-3.453299 -9.43043,-4.457451 -12.46983,-4.411421 z"
       style="display:inline;opacity:1;fill:#997864;fill-opacity:1;stroke:none;stroke-width:0.0924446px;stroke-linecap:butt;stroke-linejoin:miter;stroke-opacity:1" />
  </g>
</svg>
