<?xml version="1.0" encoding="UTF-8" standalone="no"?>
<!-- Created with Inkscape (http://www.inkscape.org/) -->

<svg
   xmlns:dc="http://purl.org/dc/elements/1.1/"
   xmlns:cc="http://creativecommons.org/ns#"
   xmlns:rdf="http://www.w3.org/1999/02/22-rdf-syntax-ns#"
   xmlns:svg="http://www.w3.org/2000/svg"
   xmlns="http://www.w3.org/2000/svg"
   xmlns:sodipodi="http://sodipodi.sourceforge.net/DTD/sodipodi-0.dtd"
   xmlns:inkscape="http://www.inkscape.org/namespaces/inkscape"
   width="149.10777mm"
   height="104.36929mm"
   viewBox="0 0 149.10777 104.36929"
   version="1.1"
   id="svg5081"
   inkscape:version="0.92.3 (2405546, 2018-03-11)"
   sodipodi:docname="single-rock.svg">
  <defs
     id="defs5075" />
  <sodipodi:namedview
     id="base"
     pagecolor="#ffffff"
     bordercolor="#666666"
     borderopacity="1.0"
     inkscape:pageopacity="0.0"
     inkscape:pageshadow="2"
     inkscape:zoom="0.83526989"
     inkscape:cx="212.56893"
     inkscape:cy="78.315526"
     inkscape:document-units="mm"
     inkscape:current-layer="layer1"
     showgrid="false"
     fit-margin-top="0"
     fit-margin-left="0"
     fit-margin-right="0"
     fit-margin-bottom="0"
     inkscape:window-width="1920"
     inkscape:window-height="1025"
     inkscape:window-x="0"
     inkscape:window-y="27"
     inkscape:window-maximized="1" />
  <metadata
     id="metadata5078">
    <rdf:RDF>
      <cc:Work
         rdf:about="">
        <dc:format>image/svg+xml</dc:format>
        <dc:type
           rdf:resource="http://purl.org/dc/dcmitype/StillImage" />
        <dc:title></dc:title>
      </cc:Work>
    </rdf:RDF>
  </metadata>
  <g
     inkscape:label="Layer 1"
     inkscape:groupmode="layer"
     id="layer1"
     transform="translate(0.63854721,-34.492603)">
    <path
       style="color:#000000;font-style:normal;font-variant:normal;font-weight:normal;font-stretch:normal;font-size:medium;line-height:normal;font-family:sans-serif;font-variant-ligatures:normal;font-variant-position:normal;font-variant-caps:normal;font-variant-numeric:normal;font-variant-alternates:normal;font-feature-settings:normal;text-indent:0;text-align:start;text-decoration:none;text-decoration-line:none;text-decoration-style:solid;text-decoration-color:#000000;letter-spacing:normal;word-spacing:normal;text-transform:none;writing-mode:lr-tb;direction:ltr;text-orientation:mixed;dominant-baseline:auto;baseline-shift:baseline;text-anchor:start;white-space:normal;shape-padding:0;clip-rule:nonzero;display:inline;overflow:visible;visibility:visible;opacity:1;isolation:auto;mix-blend-mode:normal;color-interpolation:sRGB;color-interpolation-filters:linearRGB;solid-color:#000000;solid-opacity:1;vector-effect:none;fill:#784421;fill-opacity:1;fill-rule:nonzero;stroke:none;stroke-width:7.79739809;stroke-linecap:butt;stroke-linejoin:miter;stroke-miterlimit:4;stroke-dasharray:none;stroke-dashoffset:0;stroke-opacity:1;color-rendering:auto;image-rendering:auto;shape-rendering:auto;text-rendering:auto;enable-background:accumulate"
       d="m 61.845866,57.044652 c -7.371882,0.77696 -19.281381,1.74229 -26.855841,7.945531 -1.318321,1.107749 -1.734029,1.747779 -2.206921,3.770979 0.0957,3.542779 2.74534,6.866731 6.36461,9.772661 25.79085,17.861999 60.571039,22.213297 88.851356,22.456107 l 0.0214,-7.797397 c -11.14555,-0.0303 -26.41499,-0.556792 -41.901869,-3.021491 -7.061819,-1.67934 -16.842761,-4.158409 -26.56323,-7.875429 -5.46064,-2.8199 -21.895631,-9.10703 -20.19523,-14.13048 0.410519,-1.2128 1.87811,-2.35195 4.812411,-3.350872 6.515438,-2.113568 14.736839,-3.516069 19.115809,-4.847479 z"
       id="path4652"
       inkscape:connector-curvature="0"
       sodipodi:nodetypes="ccccccccsccc" />
    <path
       style="color:#000000;font-style:normal;font-variant:normal;font-weight:normal;font-stretch:normal;font-size:medium;line-height:normal;font-family:sans-serif;font-variant-ligatures:normal;font-variant-position:normal;font-variant-caps:normal;font-variant-numeric:normal;font-variant-alternates:normal;font-feature-settings:normal;text-indent:0;text-align:start;text-decoration:none;text-decoration-line:none;text-decoration-style:solid;text-decoration-color:#000000;letter-spacing:normal;word-spacing:normal;text-transform:none;writing-mode:lr-tb;direction:ltr;text-orientation:mixed;dominant-baseline:auto;baseline-shift:baseline;text-anchor:start;white-space:normal;shape-padding:0;clip-rule:nonzero;display:inline;overflow:visible;visibility:visible;opacity:1;isolation:auto;mix-blend-mode:normal;color-interpolation:sRGB;color-interpolation-filters:linearRGB;solid-color:#000000;solid-opacity:1;vector-effect:none;fill:#784421;fill-opacity:1;fill-rule:nonzero;stroke:none;stroke-width:7.79739809;stroke-linecap:butt;stroke-linejoin:miter;stroke-miterlimit:4;stroke-dasharray:none;stroke-dashoffset:0;stroke-opacity:1;color-rendering:auto;image-rendering:auto;shape-rendering:auto;text-rendering:auto;enable-background:accumulate"
       d="m 60.193895,52.695172 c -14.190679,2.51458 -24.246901,3.24578 -32.425151,7.30716 -5.592499,2.77727 -7.264899,5.656781 -7.815579,8.794189 -0.57931,3.300532 0.057,6.630821 3.59181,10.946191 5.738191,7.005331 13.526101,12.737139 22.092349,16.925121 11.938071,5.836447 24.845103,9.453097 33.999392,11.539227 l 0.01209,0.002 0.01209,0.003 c 16.696312,3.69231 33.086214,4.83225 48.837504,4.83225 v -7.79749 c -15.3726,0 -31.232642,-1.12726 -47.153142,-4.64798 -13.11057,-2.997545 -39.539231,-10.027834 -50.702052,-21.387495 -2.594991,-2.64075 -4.22757,-5.5685 -4.596651,-8.26218 -0.461929,-3.371419 1.116722,-6.457569 5.602901,-8.437521 9.331691,-4.118499 19.572481,-6.182799 29.462561,-7.437529 z"
       id="path4671"
       inkscape:connector-curvature="0"
       sodipodi:nodetypes="cssssccccccssscc" />
    <path
       style="color:#000000;font-style:normal;font-variant:normal;font-weight:normal;font-stretch:normal;font-size:medium;line-height:normal;font-family:sans-serif;font-variant-ligatures:normal;font-variant-position:normal;font-variant-caps:normal;font-variant-numeric:normal;font-variant-alternates:normal;font-feature-settings:normal;text-indent:0;text-align:start;text-decoration:none;text-decoration-line:none;text-decoration-style:solid;text-decoration-color:#000000;letter-spacing:normal;word-spacing:normal;text-transform:none;writing-mode:lr-tb;direction:ltr;text-orientation:mixed;dominant-baseline:auto;baseline-shift:baseline;text-anchor:start;white-space:normal;shape-padding:0;clip-rule:nonzero;display:inline;overflow:visible;visibility:visible;opacity:1;isolation:auto;mix-blend-mode:normal;color-interpolation:sRGB;color-interpolation-filters:linearRGB;solid-color:#000000;solid-opacity:1;vector-effect:none;fill:#784421;fill-opacity:1;fill-rule:nonzero;stroke:none;stroke-width:7.79739809;stroke-linecap:butt;stroke-linejoin:miter;stroke-miterlimit:4;stroke-dasharray:none;stroke-dashoffset:0;stroke-opacity:1;color-rendering:auto;image-rendering:auto;shape-rendering:auto;text-rendering:auto;enable-background:accumulate"
       d="m 59.553757,48.272492 c -20.885783,2.42554 -28.809831,2.91421 -40.433122,8.81949 -12.6539304,6.34471 -11.6917406,18.16504 -6.40277,26.117721 11.75417,17.175437 33.65998,28.429107 55.78165,34.373727 22.121661,5.94462 42.587795,7.35857 59.597495,7.30864 l 0.80239,-6.97217 c -21.03388,-0.76743 -38.007163,-1.42332 -57.773255,-7.32503 -16.120909,-4.81334 -32.07122,-11.332457 -45.35576,-21.459257 -9.46472,-7.21497 -16.0708302,-21.148762 -6.42017,-27.81346 3.75992,-3.148751 10.6454,-5.327301 18.22032,-6.754191 7.574931,-1.42687 15.719301,-2.21615 22.355091,-3.61695 z"
       id="path4677"
       inkscape:connector-curvature="0"
       sodipodi:nodetypes="cccsccsscscc" />
    <path
       style="color:#000000;font-style:normal;font-variant:normal;font-weight:normal;font-stretch:normal;font-size:medium;line-height:normal;font-family:sans-serif;font-variant-ligatures:normal;font-variant-position:normal;font-variant-caps:normal;font-variant-numeric:normal;font-variant-alternates:normal;font-feature-settings:normal;text-indent:0;text-align:start;text-decoration:none;text-decoration-line:none;text-decoration-style:solid;text-decoration-color:#000000;letter-spacing:normal;word-spacing:normal;text-transform:none;writing-mode:lr-tb;direction:ltr;text-orientation:mixed;dominant-baseline:auto;baseline-shift:baseline;text-anchor:start;white-space:normal;shape-padding:0;clip-rule:nonzero;display:inline;overflow:visible;visibility:visible;opacity:1;isolation:auto;mix-blend-mode:normal;color-interpolation:sRGB;color-interpolation-filters:linearRGB;solid-color:#000000;solid-opacity:1;vector-effect:none;fill:#784421;fill-opacity:1;fill-rule:nonzero;stroke:none;stroke-width:7.79739809;stroke-linecap:butt;stroke-linejoin:miter;stroke-miterlimit:4;stroke-dasharray:none;stroke-dashoffset:0;stroke-opacity:1;color-rendering:auto;image-rendering:auto;shape-rendering:auto;text-rendering:auto;enable-background:accumulate"
       d="m 59.555394,43.810402 c -11.191618,1.66374 -22.77387,1.2331 -35.347099,5.11085 -16.2420204,5.00925 -24.97590055,12.303741 -24.84540055,21.68989 0.17219,12.385191 7.06732015,22.427441 14.71213055,30.778478 10.68827,11.59924 26.25902,22.51467 41.94498,28.12093 27.601061,9.86478 58.906015,9.19157 76.983255,9.35134 l -0.34408,-6.97217 C 95.275936,129.80755 51.063145,126.9219 17.926765,96.497764 -1.0365056,78.261424 -3.1483556,59.210122 25.633915,51.548002 c 11.354691,-2.75594 22.502319,-3.17013 34.65569,-4.97684 z"
       id="path4679"
       inkscape:connector-curvature="0"
       sodipodi:nodetypes="csscscccccc" />
    <path
       sodipodi:nodetypes="ccscccccsscc"
       inkscape:connector-curvature="0"
       id="path4691"
       d="m 61.845866,57.044652 c -7.371882,0.77696 -19.281381,1.74229 -26.855841,7.945531 -1.318321,1.107749 -2.2045,2.314548 -2.206921,3.770979 -0.01979,11.85903 27.896222,19.655171 39.353532,22.909411 18.72352,5.168249 38.606744,6.27938 56.275044,6.431079 l -0.39124,-4.909119 c -11.14556,-0.0303 -26.415,-0.556792 -41.901874,-3.021491 -7.061822,-1.67934 -16.842761,-4.158409 -26.563222,-7.875429 -5.460638,-2.8199 -21.895639,-9.10703 -20.195238,-14.13048 0.41053,-1.2128 2.280938,-3.619 5.225028,-4.588701 6.505861,-2.14286 13.907421,-2.90345 18.7032,-3.60965 z"
       style="color:#000000;font-style:normal;font-variant:normal;font-weight:normal;font-stretch:normal;font-size:medium;line-height:normal;font-family:sans-serif;font-variant-ligatures:normal;font-variant-position:normal;font-variant-caps:normal;font-variant-numeric:normal;font-variant-alternates:normal;font-feature-settings:normal;text-indent:0;text-align:start;text-decoration:none;text-decoration-line:none;text-decoration-style:solid;text-decoration-color:#000000;letter-spacing:normal;word-spacing:normal;text-transform:none;writing-mode:lr-tb;direction:ltr;text-orientation:mixed;dominant-baseline:auto;baseline-shift:baseline;text-anchor:start;white-space:normal;shape-padding:0;clip-rule:nonzero;display:inline;overflow:visible;visibility:visible;opacity:1;isolation:auto;mix-blend-mode:normal;color-interpolation:sRGB;color-interpolation-filters:linearRGB;solid-color:#000000;solid-opacity:1;vector-effect:none;fill:#c87137;fill-opacity:1;fill-rule:nonzero;stroke:none;stroke-width:7.79739809;stroke-linecap:butt;stroke-linejoin:miter;stroke-miterlimit:4;stroke-dasharray:none;stroke-dashoffset:0;stroke-opacity:1;color-rendering:auto;image-rendering:auto;shape-rendering:auto;text-rendering:auto;enable-background:accumulate" />
    <path
       sodipodi:nodetypes="ccccscccssscc"
       inkscape:connector-curvature="0"
       id="path4693"
       d="m 60.193895,52.695172 c -14.190679,2.51458 -24.246901,3.24578 -32.425151,7.30716 -4.947999,2.71281 -7.444579,4.72916 -8.167359,8.621141 -3.09571,11.347389 16.434099,21.158779 29.336841,27.631739 11.75485,3.941858 24.401658,8.467528 36.790159,10.845808 14.071388,2.70135 29.526935,3.57175 43.595385,3.87992 l -0.82523,-5.73434 c -15.3726,0 -31.232623,-1.12724 -47.153134,-4.64797 C 68.234844,97.601092 41.806184,90.570803 30.643365,79.211132 c -2.594991,-2.64075 -4.227581,-5.568489 -4.596651,-8.26217 -0.461939,-3.371429 1.116722,-7.695409 5.602901,-9.67536 9.331691,-4.1185 19.572481,-5.77019 29.462561,-7.02492 z"
       style="color:#000000;font-style:normal;font-variant:normal;font-weight:normal;font-stretch:normal;font-size:medium;line-height:normal;font-family:sans-serif;font-variant-ligatures:normal;font-variant-position:normal;font-variant-caps:normal;font-variant-numeric:normal;font-variant-alternates:normal;font-feature-settings:normal;text-indent:0;text-align:start;text-decoration:none;text-decoration-line:none;text-decoration-style:solid;text-decoration-color:#000000;letter-spacing:normal;word-spacing:normal;text-transform:none;writing-mode:lr-tb;direction:ltr;text-orientation:mixed;dominant-baseline:auto;baseline-shift:baseline;text-anchor:start;white-space:normal;shape-padding:0;clip-rule:nonzero;display:inline;overflow:visible;visibility:visible;opacity:1;isolation:auto;mix-blend-mode:normal;color-interpolation:sRGB;color-interpolation-filters:linearRGB;solid-color:#000000;solid-opacity:1;vector-effect:none;fill:#c87137;fill-opacity:1;fill-rule:nonzero;stroke:none;stroke-width:7.79739809;stroke-linecap:butt;stroke-linejoin:miter;stroke-miterlimit:4;stroke-dasharray:none;stroke-dashoffset:0;stroke-opacity:1;color-rendering:auto;image-rendering:auto;shape-rendering:auto;text-rendering:auto;enable-background:accumulate" />
    <path
       sodipodi:nodetypes="ccsssccsscscc"
       inkscape:connector-curvature="0"
       id="path4695"
       d="m 59.553757,48.272492 c -20.885783,2.42554 -28.809831,2.91421 -40.433122,8.81949 -8.00228,4.012361 -10.5591604,10.21453 -10.0200004,16.24354 0.3134002,3.504621 2.5209704,8.982671 5.2676804,12.349851 13.027901,15.970907 36.135649,24.715607 58.257329,30.660217 22.121662,5.94462 40.112116,6.12074 57.121826,6.07081 l -0.84807,-4.4965 c -21.03388,-0.76743 -38.007163,-1.42332 -57.773255,-7.32503 -16.120909,-4.81334 -32.07122,-11.332457 -45.35576,-21.459257 -9.46472,-7.21497 -16.0708302,-21.148762 -6.42017,-27.81346 3.75992,-3.148751 10.6454,-6.565141 18.22032,-7.992021 7.574931,-1.42688 15.719301,-1.80354 22.355091,-3.20434 z"
       style="color:#000000;font-style:normal;font-variant:normal;font-weight:normal;font-stretch:normal;font-size:medium;line-height:normal;font-family:sans-serif;font-variant-ligatures:normal;font-variant-position:normal;font-variant-caps:normal;font-variant-numeric:normal;font-variant-alternates:normal;font-feature-settings:normal;text-indent:0;text-align:start;text-decoration:none;text-decoration-line:none;text-decoration-style:solid;text-decoration-color:#000000;letter-spacing:normal;word-spacing:normal;text-transform:none;writing-mode:lr-tb;direction:ltr;text-orientation:mixed;dominant-baseline:auto;baseline-shift:baseline;text-anchor:start;white-space:normal;shape-padding:0;clip-rule:nonzero;display:inline;overflow:visible;visibility:visible;opacity:1;isolation:auto;mix-blend-mode:normal;color-interpolation:sRGB;color-interpolation-filters:linearRGB;solid-color:#000000;solid-opacity:1;vector-effect:none;fill:#c87137;fill-opacity:1;fill-rule:nonzero;stroke:none;stroke-width:7.79739809;stroke-linecap:butt;stroke-linejoin:miter;stroke-miterlimit:4;stroke-dasharray:none;stroke-dashoffset:0;stroke-opacity:1;color-rendering:auto;image-rendering:auto;shape-rendering:auto;text-rendering:auto;enable-background:accumulate" />
    <path
       sodipodi:nodetypes="csssccccccc"
       inkscape:connector-curvature="0"
       id="path4697"
       d="m 59.555394,43.810402 c -11.191618,1.66374 -22.77387,1.2331 -35.347099,5.11085 -16.2420204,5.00925 -24.97591055,12.303741 -24.84540055,21.68989 0.096,6.90789 1.88536005,13.46232 5.66835005,18.507821 15.3042205,20.411857 34.6433605,31.058227 53.4644305,37.915907 27.601071,9.86478 56.017735,9.19158 74.094965,9.35135 l 0.0685,-4.4965 C 95.275896,129.80755 51.063105,126.9219 17.926725,96.497764 -1.0365456,78.261424 -0.67272555,57.559662 28.109546,49.897542 c 11.354689,-2.75593 21.677098,-2.75751 33.830469,-4.56422 z"
       style="color:#000000;font-style:normal;font-variant:normal;font-weight:normal;font-stretch:normal;font-size:medium;line-height:normal;font-family:sans-serif;font-variant-ligatures:normal;font-variant-position:normal;font-variant-caps:normal;font-variant-numeric:normal;font-variant-alternates:normal;font-feature-settings:normal;text-indent:0;text-align:start;text-decoration:none;text-decoration-line:none;text-decoration-style:solid;text-decoration-color:#000000;letter-spacing:normal;word-spacing:normal;text-transform:none;writing-mode:lr-tb;direction:ltr;text-orientation:mixed;dominant-baseline:auto;baseline-shift:baseline;text-anchor:start;white-space:normal;shape-padding:0;clip-rule:nonzero;display:inline;overflow:visible;visibility:visible;opacity:1;isolation:auto;mix-blend-mode:normal;color-interpolation:sRGB;color-interpolation-filters:linearRGB;solid-color:#000000;solid-opacity:1;vector-effect:none;fill:#c87137;fill-opacity:1;fill-rule:nonzero;stroke:none;stroke-width:7.79739809;stroke-linecap:butt;stroke-linejoin:miter;stroke-miterlimit:4;stroke-dasharray:none;stroke-dashoffset:0;stroke-opacity:1;color-rendering:auto;image-rendering:auto;shape-rendering:auto;text-rendering:auto;enable-background:accumulate" />
    <path
       style="display:inline;opacity:1;fill:#564338;fill-opacity:1;stroke:none;stroke-width:0.20630616px;stroke-linecap:butt;stroke-linejoin:miter;stroke-opacity:1"
       d="m 58.257375,43.852372 c -4.50515,3.21694 -8.24792,7.73383 -10.107329,12.83131 -1.5181,4.16174 -1.006732,9.22651 1.580178,12.999259 4.662152,6.799271 13.461662,9.59086 20.535911,11.456051 10.59575,2.793651 21.288452,3.727202 31.478055,4.07674 8.46496,0.29038 18.59026,1.255961 26.08012,-0.415679 9.36065,-2.089161 21.8016,-6.921241 20.5586,-17.17009 -0.44776,-3.691962 -1.69891,-7.116921 -3.82762,-10.111701 -8.5231,-11.99069 -22.92227,-18.5568 -36.74446,-20.75436 -20.001664,-3.180041 -33.056234,-4.691521 -49.553455,7.08847 z"
       id="path4816"
       inkscape:connector-curvature="0"
       sodipodi:nodetypes="ssssssssss" />
    <path
       sodipodi:nodetypes="sscccscss"
       inkscape:connector-curvature="0"
       id="path4818"
       d="m 87.692056,34.503342 c -10.15774,-0.18384 -19.123731,1.98658 -29.434501,9.34906 -4.50514,3.21695 -8.247949,7.7338 -10.10739,12.83128 -1.518079,4.16174 -1.006949,9.22655 1.57994,12.99931 1.54105,2.247431 3.55849,4.024421 5.791902,5.5074 4.001198,4.496461 56.082833,8.00418 73.800653,1.335849 10.13005,-3.81258 15.08995,-11.394419 9.8706,-25.222119 -8.66568,-9.587631 -19.10334,-12.588051 -31.38233,-14.54027 -7.50063,-1.19251 -14.024234,-2.15019 -20.118874,-2.26051 z"
       style="display:inline;opacity:1;fill:#997864;fill-opacity:1;stroke:none;stroke-width:0.20630616px;stroke-linecap:butt;stroke-linejoin:miter;stroke-opacity:1" />
  </g>
</svg>
